PathFileType	4	(X/Y/Z)	/Users/itak/Documents/Research/Walk-IL/dataset/trc/00534_00009.trc
DataRate	CameraRate	NumFrames	NumMarkers	Units	OrigDataRate	OrigDataStartFrame	OrigNumFrames
100.000000	100.000000	4	54	mm	100.000000	546	624
Frame#	Time	RPSI			LPSI			L3			STRN			T10			C7			CLAV			RBAK			LBAK			LSHO			LUPA			LAEL			LAOL			LWTS			LWPS			LFRA			LHPS			LHTS			RSHO			RUPA			RAEL			RAOL			RWTS			RWPS			RFRA			RIFD			RHTS			RHPS			RBHD			LFHD			RFHD			LBHD			LHIP			RASI			LASI			LKNE			LTHI			LANK			LTIP			LTOE			LMT1			LMT5			LHEE			RKNE			RTHI			RANK			RTIP			RTOE			RMT1			RMT5			RHEE			RHIP			LIFD			*53			
		X1	Y1	Z1	X2	Y2	Z2	X3	Y3	Z3	X4	Y4	Z4	X5	Y5	Z5	X6	Y6	Z6	X7	Y7	Z7	X8	Y8	Z8	X9	Y9	Z9	X10	Y10	Z10	X11	Y11	Z11	X12	Y12	Z12	X13	Y13	Z13	X14	Y14	Z14	X15	Y15	Z15	X16	Y16	Z16	X17	Y17	Z17	X18	Y18	Z18	X19	Y19	Z19	X20	Y20	Z20	X21	Y21	Z21	X22	Y22	Z22	X23	Y23	Z23	X24	Y24	Z24	X25	Y25	Z25	X26	Y26	Z26	X27	Y27	Z27	X28	Y28	Z28	X29	Y29	Z29	X30	Y30	Z30	X31	Y31	Z31	X32	Y32	Z32	X33	Y33	Z33	X34	Y34	Z34	X35	Y35	Z35	X36	Y36	Z36	X37	Y37	Z37	X38	Y38	Z38	X39	Y39	Z39	X40	Y40	Z40	X41	Y41	Z41	X42	Y42	Z42	X43	Y43	Z43	X44	Y44	Z44	X45	Y45	Z45	X46	Y46	Z46	X47	Y47	Z47	X48	Y48	Z48	X49	Y49	Z49	X50	Y50	Z50	X51	Y51	Z51	X52	Y52	Z52	X53	Y53	Z53	X54	Y54	Z54	

547	5.46	836.99072265625	1018.982482910156	256.677001953125	889.1358032226562	1020.85205078125	133.8624114990234	868.117431640625	1114.748657226562	191.9331665039062	1086.865112304688	1302.60400390625	271.0107727050781	859.881591796875	1239.960083007812	183.7966003417969	903.8872680664062	1513.947509765625	208.4402770996094	1069.25439453125	1414.50634765625	263.212646484375	804.4562377929688	1391.194580078125	265.6249389648438	905.4381713867188	1458.969482421875	110.7868118286133	1026.998657226562	1483.922729492188	72.78328704833984	1058.756103515625	1358.4775390625	-1.570215702056885	1116.024169921875	1141.461547851562	-2.232966661453247	1017.207946777344	1118.987548828125	4.273061752319336	1216.284301757812	924.5899047851562	109.4006423950195	1213.975952148438	890.8328247070312	28.2669620513916	1153.1923828125	1060.846923828125	10.47552585601807	1228.630249023438	833.896484375	47.07809448242188	1253.21337890625	852.1363525390625	107.4565124511719	902.363525390625	1480.066284179688	373.9403991699219	861.8651733398438	1416.828369140625	431.1839294433594	843.1195678710938	1129.046142578125	480.2711486816406	801.83154296875	1110.372314453125	435.3572387695312	985.9915161132812	911.7053833007812	500.43115234375	920.8236694335938	892.0684204101562	546.3296508789062	850.2078247070312	1073.794311523438	492.6197204589844	999.7236938476562	738.270263671875	521.7647705078125	1008.85498046875	821.5007934570312	528.6190795898438	939.8932495117188	819.482421875	555.4338989257812	950.9352416992188	1694.20361328125	292.7825927734375	1146.98583984375	1717.797607421875	228.0017700195312	1075.3720703125	1718.130615234375	353.9118041992188	1038.954223632812	1692.339477539062	153.2420959472656	1056.870483398438	941.4700927734375	60.49197387695312	1009.735717773438	984.6943359375	398.3168640136719	1107.22265625	967.5894775390625	140.1594848632812	1054.52978515625	498.9587707519531	147.7025604248047	1069.7568359375	663.2789916992188	110.0267944335938	972.9182739257812	32.63850402832031	157.755615234375	994.89013671875	252.2277221679688	138.3795928955078	1145.557983398438	41.31813430786133	294.6443481445312	1064.65673828125	48.56931686401367	297.0856323242188	1090.331298828125	34.77899551391602	191.1096496582031	890.1017456054688	39.55370712280273	182.1227722167969	993.686279296875	510.1939086914062	416.7476806640625	953.2523193359375	799.9632568359375	439.7841491699219	893.1852416992188	42.74071884155273	370.5729064941406	994.9578247070312	363.0125122070312	407.0788269042969	1110.23779296875	53.20341110229492	412.3773193359375	1066.332885742188	48.47769927978516	350.7635192871094	1007.763916015625	45.96396636962891	436.1330871582031	863.2017211914062	36.45206451416016	298.9451293945312	907.43798828125	950.667236328125	417.7082214355469	1249.044921875	757.2923583984375	123.3838272094727	nan	nan	nan	
548	5.47	838.5211791992188	1018.587707519531	257.828125	890.5126342773438	1020.596984863281	135.0198211669922	869.3142700195312	1114.4609375	193.1482696533203	1087.93994140625	1302.489379882812	272.0892639160156	860.9163818359375	1239.639404296875	184.9821472167969	904.8309326171875	1513.724975585938	209.5312805175781	1070.267456054688	1414.39697265625	264.2047729492188	805.4751586914062	1390.890625	266.7276916503906	906.3507690429688	1458.750854492188	111.8849487304688	1027.874267578125	1483.651611328125	73.74998474121094	1059.276611328125	1358.012817382812	-0.5163007378578186	1115.60595703125	1140.685302734375	-1.264736533164978	1016.6416015625	1118.774658203125	5.476376056671143	1214.078369140625	922.2985229492188	109.2867889404297	1211.363525390625	889.01318359375	28.00570297241211	1152.124389648438	1059.677124023438	11.10647773742676	1225.493286132812	831.8541870117188	46.43768310546875	1250.302001953125	849.486328125	106.8687438964844	903.3817138671875	1479.819458007812	375.0176086425781	862.8985595703125	1416.564453125	432.2755126953125	844.0758056640625	1128.80224609375	481.4046020507812	802.6875	1110.105102539062	436.5343627929688	986.7134399414062	911.2582397460938	501.4361572265625	921.5433959960938	891.7256469726562	547.4230346679688	851.1484375	1073.529663085938	493.7330932617188	1000.207336425781	737.789794921875	522.78564453125	1009.495727539062	821.04443359375	529.728271484375	940.5300903320312	819.0963134765625	556.470947265625	952.0401000976562	1694.074340820312	293.8324584960938	1148.006591796875	1717.566772460938	228.8756408691406	1076.531982421875	1717.95166015625	354.8470764160156	1039.903930664062	1692.1591796875	154.2153778076172	1058.3388671875	941.4313354492188	61.47730255126953	1011.313354492188	984.4629516601562	399.389892578125	1108.735717773438	967.5851440429688	141.1074371337891	1055.227905273438	498.9140319824219	148.326171875	1070.841674804688	663.1885375976562	110.8037567138672	972.9080200195312	32.65850448608398	157.7728881835938	995.1666259765625	252.2691650390625	138.6322937011719	1145.57080078125	41.30686569213867	294.6606140136719	1064.648559570312	48.52659225463867	297.1106567382812	1090.27001953125	34.72031021118164	191.1623840332031	890.1171264648438	39.58303070068359	182.1248931884766	994.5684814453125	509.7596740722656	416.7676391601562	954.8668823242188	799.5712280273438	440.7026977539062	893.8043823242188	42.87602615356445	370.725341796875	995.7474975585938	362.6232299804688	406.946533203125	1111.617553710938	49.71975326538086	412.5655517578125	1067.192016601562	46.47644424438477	350.9541320800781	1008.666564941406	44.76301574707031	436.4221801757812	863.5258178710938	36.93912506103516	299.1400756835938	909.1437377929688	950.3441772460938	418.8184814453125	1245.259887695312	754.6233520507812	122.2058486938477	nan	nan	nan	
549	5.48	840.0162963867188	1018.243347167969	258.9871520996094	891.875244140625	1020.361694335938	136.1795349121094	870.4931640625	1114.186645507812	194.3345642089844	1088.966796875	1302.417114257812	273.1796569824219	861.9490966796875	1239.350341796875	186.1458892822266	905.701416015625	1513.531372070312	210.6344451904297	1071.221557617188	1414.324340820312	265.2163391113281	806.4334106445312	1390.594482421875	267.8378295898438	907.2109985351562	1458.556518554688	112.9986877441406	1028.682983398438	1483.417602539062	74.71112060546875	1059.695434570312	1357.575317382812	0.5606359243392944	1115.068603515625	1139.93115234375	-0.3028504252433777	1015.9326171875	1118.548828125	6.761748790740967	1211.724731445312	919.98388671875	109.0518112182617	1208.551391601562	887.20849609375	27.62344741821289	1150.918579101562	1058.524658203125	11.69667816162109	1222.1337890625	829.8187255859375	45.63957214355469	1247.199340820312	846.8075561523438	106.1213302612305	904.3175659179688	1479.585327148438	376.105712890625	863.8762817382812	1416.316528320312	433.3788452148438	845.0191650390625	1128.567993164062	482.5394897460938	803.5463256835938	1109.837158203125	437.7128601074219	987.4439697265625	910.8350219726562	502.4547729492188	922.274658203125	891.3916015625	548.5261840820312	852.1015014648438	1073.2763671875	494.8542785644531	1000.722534179688	737.311279296875	523.8468627929688	1010.104309082031	820.5547485351562	530.7969970703125	941.200439453125	818.7311401367188	557.5114135742188	953.0731811523438	1693.981567382812	294.9171752929688	1148.953857421875	1717.377197265625	229.7663269042969	1077.623046875	1717.799194335938	355.8018188476562	1040.7666015625	1692.02880859375	155.2205047607422	1059.803100585938	941.3983154296875	62.48379898071289	1012.839233398438	984.2747192382812	400.5035400390625	1110.27001953125	967.619384765625	142.1171722412109	1055.888549804688	498.8798828125	148.9976654052734	1071.882080078125	663.1006469726562	111.6007385253906	972.8949584960938	32.68584060668945	157.7970275878906	995.4305419921875	252.3148040771484	138.9075012207031	1145.582763671875	41.29684829711914	294.6737670898438	1064.636474609375	48.47991561889648	297.1392211914062	1090.208374023438	34.66242599487305	191.2177581787109	890.12158203125	39.61021041870117	182.1347503662109	995.1922607421875	509.3518981933594	416.7693176269531	956.3363037109375	799.2354125976562	441.6295471191406	894.22314453125	43.00028991699219	370.7908020019531	996.25830078125	362.2738647460938	406.7856750488281	1112.620849609375	46.80397796630859	412.9242858886719	1067.788208007812	44.86487579345703	351.2702331542969	1009.253662109375	43.776611328125	436.8047790527344	863.7218627929688	37.35536575317383	299.2259216308594	910.8087158203125	950.0757446289062	419.9493103027344	1241.26953125	751.9298095703125	120.8112640380859	nan	nan	nan	
550	5.49	841.4721069335938	1017.972534179688	260.1526489257812	893.2322387695312	1020.158142089844	137.3312835693359	871.6655883789062	1113.940063476562	195.4844818115234	1089.951416015625	1302.394165039062	274.2744140625	862.9816284179688	1239.105834960938	187.2887725830078	906.5064086914062	1513.37451171875	211.7439575195312	1072.122924804688	1414.2958984375	266.2407836914062	807.335693359375	1390.31396484375	268.9530639648438	908.0195922851562	1458.396484375	114.1256332397461	1029.429321289062	1483.231079101562	75.66841888427734	1060.02197265625	1357.179077148438	1.649307131767273	1114.407836914062	1139.213989257812	0.6478405594825745	1015.08349609375	1118.324584960938	8.122610092163086	1209.229370117188	917.6723022460938	108.6970367431641	1205.553833007812	885.4472045898438	27.11482429504395	1149.575073242188	1057.40869140625	12.2400426864624	1218.5615234375	827.8175048828125	44.69452667236328	1243.920166015625	844.1367797851562	105.2153778076172	905.173583984375	1479.372680664062	377.2019958496094	864.7967529296875	1416.09228515625	434.4871215820312	845.951171875	1128.352661132812	483.6676025390625	804.4298706054688	1109.583862304688	438.8756713867188	988.1774291992188	910.4384765625	503.493896484375	923.013916015625	891.074951171875	549.6360473632812	853.0594482421875	1073.04052734375	495.9754028320312	1001.27099609375	736.8378295898438	524.9508666992188	1010.695556640625	820.0614013671875	531.8331909179688	941.8878173828125	818.3949584960938	558.5615844726562	954.0343627929688	1693.931762695312	296.037353515625	1149.828979492188	1717.238037109375	230.6734924316406	1078.6455078125	1717.682983398438	356.7754516601562	1041.546020507812	1691.9560546875	156.2531433105469	1061.25537109375	941.369873046875	63.51550674438477	1014.313781738281	984.14697265625	401.6566772460938	1111.81298828125	967.6746826171875	143.1893920898438	1056.53271484375	498.8506164550781	149.7206420898438	1072.890991210938	663.0155639648438	112.4219589233398	972.8796997070312	32.72509384155273	157.8309326171875	995.6929321289062	252.3616638183594	139.2178344726562	1145.5888671875	41.28492736816406	294.6891479492188	1064.62255859375	48.42940902709961	297.1710815429688	1090.1484375	34.6104621887207	191.2752838134766	890.1091918945312	39.63406753540039	182.1591339111328	995.5272827148438	508.9906311035156	416.7581481933594	957.6414794921875	798.96435546875	442.5533142089844	894.4949951171875	43.11166763305664	370.7856750488281	996.5112915039062	361.9772338867188	406.6081237792969	1113.317749023438	44.53963088989258	413.3552551269531	1068.192749023438	43.66239166259766	351.6236877441406	1009.617492675781	43.01996612548828	437.202880859375	863.8486328125	37.68523406982422	299.2379455566406	912.4052734375	949.8807983398438	421.106201171875	1237.07666015625	749.2446899414062	119.2322692871094	nan	nan	nan	
